<?xml version="1.0" standalone="no"?><!DOCTYPE svg PUBLIC "-//W3C//DTD SVG 1.1//EN" "http://www.w3.org/Graphics/SVG/1.1/DTD/svg11.dtd"><svg t="1745383710460" class="icon" viewBox="0 0 1024 1024" version="1.1" xmlns="http://www.w3.org/2000/svg" p-id="13425" xmlns:xlink="http://www.w3.org/1999/xlink" width="256" height="256"><path d="M348.649075 118.952119h-35.977553v70.938747H182.249075v184.801433h34.900059v-20.94615h95.522388v131.622209h35.977553V353.746149h95.904477v20.94615h34.892418V189.898507H348.649075v-70.938746z m-35.977553 200.597015h-95.522388v-95.522388h95.522388v95.522388z m131.88203-95.522388v95.522388h-95.904477v-95.522388h95.904477z" p-id="13426"></path><path d="M979.715821 386.980299H653.930985V70.999881C653.984478 31.843343 622.156418 0 582.915821 0H70.999881C31.843343 0 0 31.843343 0 70.999881v502.119164c0 39.164179 31.843343 71.007522 70.999881 71.007522h306.176v335.589254c0 21.649194 17.576119 39.164179 39.164179 39.164179h563.375761c21.649194 0 39.164179-17.576119 39.164179-39.164179v-553.571343a39.164179 39.164179 0 0 0-39.164179-39.164179zM377.175881 580.439881H70.999881a7.320836 7.320836 0 0 1-7.320836-7.320836V70.999881c0-4.01194 3.308896-7.320836 7.320836-7.320836h511.923582c4.01194 0 7.328478 3.308896 7.328477 7.320836v502.119164c0 4.050149-3.28597 7.320836-7.328477 7.320836H377.175881z m415.514746 266.186507l-26.241911-75.783642H651.004179l-26.24191 75.783642h-45.468657l104.119403-279.872955h47.379104l107.749254 279.811821h-45.850746v0.061134z" p-id="13427"></path><path d="M706.911522 612.604179l-42.985074 122.956418h89.538865l-46.232835-122.895284z" p-id="13428"></path></svg>